<svg width="28" height="28" viewBox="0 0 28 28" fill="none" xmlns="http://www.w3.org/2000/svg">
<path d="M12.6265 25.6654C12.1015 25.6654 11.6496 25.4904 11.2708 25.1404C10.892 24.7904 10.6633 24.3626 10.5848 23.857L10.3223 21.932C10.0695 21.8348 9.83151 21.7181 9.60829 21.582C9.38507 21.4459 9.16612 21.3001 8.95146 21.1445L7.14312 21.9029C6.65701 22.1168 6.1709 22.1362 5.68479 21.9612C5.19868 21.7862 4.81951 21.4751 4.54729 21.0279L3.17646 18.6362C2.90424 18.189 2.82646 17.7126 2.94313 17.207C3.05979 16.7015 3.32229 16.2834 3.73062 15.9529L5.27646 14.7862C5.25701 14.6501 5.24729 14.5186 5.24729 14.3919V13.6044C5.24729 13.4784 5.25701 13.3473 5.27646 13.2112L3.73062 12.0445C3.32229 11.714 3.05979 11.2959 2.94313 10.7904C2.82646 10.2848 2.90424 9.80842 3.17646 9.3612L4.54729 6.96953C4.81951 6.52231 5.19868 6.2112 5.68479 6.0362C6.1709 5.8612 6.65701 5.88064 7.14312 6.09453L8.95146 6.85286C9.16535 6.69731 9.38896 6.55148 9.62229 6.41536C9.85562 6.27925 10.089 6.16259 10.3223 6.06536L10.5848 4.14036C10.6626 3.63481 10.8912 3.20703 11.2708 2.85703C11.6503 2.50703 12.1022 2.33203 12.6265 2.33203H15.3681C15.8931 2.33203 16.3454 2.50703 16.725 2.85703C17.1045 3.20703 17.3328 3.63481 17.4098 4.14036L17.6723 6.06536C17.9251 6.16259 18.1635 6.27925 18.3875 6.41536C18.6115 6.55148 18.83 6.69731 19.0431 6.85286L20.8515 6.09453C21.3376 5.88064 21.8237 5.8612 22.3098 6.0362C22.7959 6.2112 23.1751 6.52231 23.4473 6.96953L24.8181 9.3612C25.0903 9.80842 25.1681 10.2848 25.0515 10.7904C24.9348 11.2959 24.6723 11.714 24.264 12.0445L22.7181 13.2112C22.7376 13.3473 22.7473 13.4788 22.7473 13.6055V14.3919C22.7473 14.5186 22.7278 14.6501 22.689 14.7862L24.2348 15.9529C24.6431 16.2834 24.9056 16.7015 25.0223 17.207C25.139 17.7126 25.0612 18.189 24.789 18.6362L23.389 21.0279C23.1167 21.4751 22.7376 21.7862 22.2515 21.9612C21.7653 22.1362 21.2792 22.1168 20.7931 21.9029L19.0431 21.1445C18.8292 21.3001 18.6056 21.4459 18.3723 21.582C18.139 21.7181 17.9056 21.8348 17.6723 21.932L17.4098 23.857C17.332 24.3626 17.1037 24.7904 16.725 25.1404C16.3462 25.4904 15.8939 25.6654 15.3681 25.6654H12.6265ZM14.0556 18.082C15.1834 18.082 16.1459 17.6834 16.9431 16.8862C17.7403 16.089 18.139 15.1265 18.139 13.9987C18.139 12.8709 17.7403 11.9084 16.9431 11.1112C16.1459 10.314 15.1834 9.91536 14.0556 9.91536C12.9084 9.91536 11.9408 10.314 11.153 11.1112C10.3651 11.9084 9.97151 12.8709 9.97229 13.9987C9.97307 15.1265 10.367 16.089 11.1541 16.8862C11.9412 17.6834 12.9084 18.082 14.0556 18.082Z" fill="#6B727F"/>
</svg>
