<svg width="28" height="28" viewBox="0 0 28 28" fill="none" xmlns="http://www.w3.org/2000/svg">
<path fill-rule="evenodd" clip-rule="evenodd" d="M5.83011 21.0016C5.63132 21.0015 5.43585 20.9506 5.26226 20.8537C5.08866 20.7568 4.9427 20.6172 4.83821 20.4481C4.73373 20.279 4.67419 20.086 4.66524 19.8874C4.6563 19.6888 4.69825 19.4912 4.78711 19.3134L6.99677 14.8929V11.6682C6.99677 7.31891 9.97177 3.66491 13.9968 2.62891C18.0218 3.66491 20.9968 7.31891 20.9968 11.6682V14.8929L23.2064 19.3134C23.2953 19.4912 23.3372 19.6888 23.3283 19.8874C23.3194 20.086 23.2598 20.279 23.1553 20.4481C23.0508 20.6172 22.9049 20.7568 22.7313 20.8537C22.5577 20.9506 22.3622 21.0015 22.1634 21.0016H5.83011ZM9.47711 22.1682C9.73662 23.1695 10.3213 24.0563 11.1393 24.6893C11.9573 25.3224 12.9624 25.6658 13.9968 25.6658C15.0311 25.6658 16.0362 25.3224 16.8542 24.6893C17.6723 24.0563 18.2569 23.1695 18.5164 22.1682H9.47711Z" fill="#6B727F"/>
</svg>
