<svg width="28" height="28" viewBox="0 0 28 28" fill="none" xmlns="http://www.w3.org/2000/svg">
<path d="M17.6332 3.74417L17.7428 3.841L24.1595 10.2577C24.3562 10.4554 24.4755 10.717 24.4959 10.9951C24.5163 11.2733 24.4364 11.5495 24.2706 11.7738C24.1049 11.9981 23.8643 12.1556 23.5924 12.2177C23.3205 12.2799 23.0354 12.2426 22.7887 12.1127L19.088 15.8122L17.4267 20.242C17.3829 20.3589 17.3207 20.468 17.2423 20.5652L17.1607 20.6585L15.4107 22.4085C15.2096 22.6092 14.9423 22.7297 14.6587 22.7473C14.3752 22.7649 14.095 22.6784 13.8707 22.5042L13.7598 22.4073L10.5013 19.15L6.07616 23.574C5.86621 23.7832 5.58449 23.9047 5.28822 23.9138C4.99194 23.9228 4.70333 23.8187 4.48101 23.6227C4.25868 23.4267 4.11931 23.1534 4.0912 22.8583C4.06309 22.5632 4.14835 22.2685 4.32966 22.034L4.4265 21.9243L8.8505 17.4992L5.59316 14.2407C5.39229 14.0398 5.27162 13.7725 5.25379 13.489C5.23596 13.2054 5.3222 12.9251 5.49633 12.7007L5.59316 12.591L7.34316 10.841C7.43119 10.7527 7.53281 10.679 7.64416 10.6228L7.7585 10.5738L12.1872 8.91133L15.8867 5.213C15.7605 4.97714 15.7192 4.70509 15.7698 4.44242C15.8203 4.17975 15.9595 3.94242 16.1642 3.77018C16.3688 3.59794 16.6264 3.50124 16.8938 3.49629C17.1613 3.49135 17.4223 3.57961 17.6332 3.74417Z" fill="#6B727F"/>
</svg>
